<svg xmlns="http://www.w3.org/2000/svg" xmlns:xlink="http://www.w3.org/1999/xlink" version="1.1" viewBox="0 0 2037 2037.05">
<g enable-background="new">
<g>
<g>
<clipPath id="cp0">
<path transform="matrix(1,0,0,-1,0,2037.048)" d="M 236 514 L 1747 514 L 1747 1493 L 236 1493 Z "/>
</clipPath>
<g clip-path="url(#cp0)">
<clipPath id="cp1">
<path transform="matrix(1,0,0,-1,0,2037.048)" d="M 0 0 L 2037 0 L 2037 2037.048 L 0 2037.048 Z "/>
</clipPath>
<g clip-path="url(#cp1)">
<path transform="matrix(1,0,0,-1,0,2037.048)" d="M 765.4433 1093.658 L 1141.764 1106.112 C 1153.705 1106.112 1210.517 1113.812 1210.517 1101.87 L 1151.287 1031.069 C 1151.287 1019.128 1145.514 1026.741 1133.572 1026.741 L 765.4433 1026.741 C 753.502 1026.741 731.847 1018.459 731.847 1030.4 L 734.5007 1087.092 C 734.5007 1099.033 753.502 1093.658 765.4433 1093.658 Z " fill="#7c1da3"/>
<path transform="matrix(1,0,0,-1,0,2037.048)" d="M 480.4645 1442.603 L 486.3843 1445.14 C 498.3256 1445.14 507.7858 1419.484 507.7858 1407.543 L 507.7858 983.0214 C 507.7858 971.0801 498.1055 961.3998 486.1642 961.3998 L 484.1162 961.3998 C 472.175 961.3998 462.4946 971.0801 462.4946 983.0214 L 462.4946 1407.543 C 462.4946 1419.484 468.5232 1442.603 480.4645 1442.603 Z M 513.4015 1457.552 L 1230.799 1472.289 L 1624.967 1469.362 C 1645.069 1469.362 1647.138 1472.158 1647.138 1465.657 L 1657.935 1443.776 C 1657.935 1440.447 1716.347 677.049 1681.675 659.0377 C 1675.769 655.9698 1628.339 659.9783 1628.339 659.9783 L 1633.819 682.941 C 1663.11 842.9223 1627.523 1380.372 1621.536 1432.005 L 511.8479 1414.138 C 491.7455 1414.138 477.0029 1437.275 477.0029 1443.776 L 477.0029 1445.781 C 477.0029 1452.282 493.2991 1457.552 513.4015 1457.552 Z M 501.3807 684.1015 L 604.4759 684.1015 C 613.6345 684.1015 621.059 676.677 621.059 667.5184 C 621.059 658.3598 613.6345 650.9353 604.4759 650.9353 L 501.3807 650.9353 C 492.2221 650.9353 484.7976 658.3598 484.7976 667.5184 C 484.7976 676.677 492.2221 684.1015 501.3807 684.1015 Z M 827.7136 692.6997 L 1254.056 697.5296 L 1644.804 692.6997 C 1655.206 692.6997 1663.64 684.2666 1663.64 673.8638 C 1663.64 663.461 1655.206 655.0279 1644.804 655.0279 L 827.7136 655.0279 C 817.3108 655.0279 791.4803 653.2798 791.282 655.9262 C 791.0837 658.5727 796.6439 690.925 796.6439 690.925 C 796.6439 701.3278 817.3108 692.6997 827.7136 692.6997 Z " fill="#7c1da3"/>
<path transform="matrix(1,0,0,-1,0,2037.048)" d="M 508.2027 1420.159 L 537.0353 1420.159 C 540.8634 1420.159 543.9668 1417.056 543.9668 1413.228 C 543.9668 1409.4 540.8634 1406.296 537.0353 1406.296 L 508.2027 1406.296 C 504.3745 1406.296 501.2712 1409.4 501.2712 1413.228 C 501.2712 1417.056 504.3745 1420.159 508.2027 1420.159 Z " fill="#7c1da3"/>
<path transform="matrix(1,0,0,-1,0,2037.048)" d="M 1248.962 1100.59 C 1243.394 1102.743 1238.776 1102.271 1234.002 1096.749 C 1216.045 1075.977 1200.473 1054.229 1183.383 1032.737 C 1177.52 1025.364 1208.236 1019.28 1210.777 1023.5 C 1212.931 1027.077 1212.795 1031.737 1214.962 1035.307 C 1226.308 1053.996 1243.414 1071.446 1254.792 1090.116 C 1259.011 1097.04 1254.054 1098.621 1248.962 1100.59 Z " fill="#7c1da3"/>
<path transform="matrix(1,0,0,-1,0,2037.048)" d="M 432.2812 984.8606 C 429.3276 985.0127 426.49 984.4809 423.6875 983.7043 C 420.8851 982.9275 418.1331 981.9036 415.375 981.1106 C 410.7264 979.7745 406.29 978.5788 402 977.0481 C 397.71 975.5173 393.5468 973.6607 389.4062 970.9856 C 386.8557 969.3378 385.029 967.1788 383.2188 964.9856 C 381.4087 962.7924 379.6239 960.5571 377.1875 958.7668 C 376.3386 958.1432 375.3846 957.6802 374.4375 957.2043 C 373.4901 956.7288 372.5658 956.2462 371.75 955.5793 C 369.2719 953.5546 367.0716 951.1265 364.9688 948.6106 C 362.8659 946.095 360.8409 943.4898 358.75 941.1106 C 354.9411 936.7761 351.163 932.2081 347.75 927.3606 C 344.3371 922.5133 341.298 917.3865 339 911.9856 C 337.8724 909.3354 336.9665 906.6037 335.9688 903.8918 C 334.9711 901.1795 333.8784 898.4923 332.4062 896.0168 C 330.2554 892.4001 327.9203 888.7824 325.4062 885.2981 C 322.8923 881.8134 320.19 878.4733 317.3438 875.3606 C 315.5436 873.3916 313.6587 871.4494 311.875 869.4543 C 310.0913 867.4592 308.4126 865.405 307 863.1418 C 304.112 858.5146 301.572 853.6948 298.9688 848.8918 C 296.3655 844.089 293.6981 839.3035 290.625 834.7668 C 288.3347 831.3861 286.0617 828.7141 283.9375 825.9231 C 281.8133 823.132 279.8513 820.2303 278.2188 816.3606 C 276.9076 813.2528 276.4124 811.6033 276.0938 809.8918 C 275.775 808.1805 275.6191 806.4079 275 803.0168 C 274.446 799.9812 273.6569 796.9751 272.875 793.9856 C 272.0931 790.9959 271.3101 788.0043 270.8438 784.9543 C 270.3172 781.5097 270.3394 778.0181 270.3125 774.5168 C 270.2856 771.0152 270.2273 767.5247 269.5312 764.1106 C 268.4381 758.7476 266.5466 753.4717 264.5625 748.2356 C 262.5784 742.9995 260.488 737.7843 258.9688 732.5168 C 257.6664 728.0009 256.9101 723.3248 256.3125 718.6106 C 255.7149 713.8964 255.2749 709.1519 254.625 704.5168 C 254.0191 700.1961 252.8491 696.1933 251.625 692.2356 C 250.4009 688.2778 249.124 684.3619 248.4062 680.2668 C 247.385 674.4413 247.7331 668.2806 248.5312 662.1418 C 249.3293 656.0029 250.594 649.8883 251.4062 644.1731 C 252.2139 638.4922 252.5884 632.7943 253.4688 627.2356 C 254.3492 621.6753 255.7398 616.2472 258.5312 611.0793 C 260.0682 608.2338 261.5937 605.6977 263.2188 603.2356 C 264.8438 600.7734 266.5528 598.4018 268.4688 595.8606 C 269.5358 594.4459 270.5896 592.8412 271.7812 591.4543 C 272.9728 590.0674 274.3191 588.8922 276 588.3293 C 279.6938 587.0955 283.6331 587.6944 287.5938 588.5793 C 291.5545 589.4634 295.5373 590.6419 299.3125 590.5793 C 301.1558 590.5486 302.9976 590.2107 304.8438 589.9856 C 306.6898 589.7605 308.5428 589.6265 310.4062 589.9856 C 312.2161 590.3336 313.9038 591.0854 315.625 591.7981 C 317.3463 592.5113 319.0717 593.1835 320.9062 593.3606 C 322.8713 593.5493 324.8853 593.2915 326.875 593.0793 C 328.8647 592.8677 330.8306 592.7113 332.75 593.1731 C 336.8331 594.1559 340.133 596.5899 343.2188 599.3293 C 346.3044 602.0687 349.1778 605.1203 352.5 607.2668 C 354.0898 608.2942 355.8236 609.0936 357.5312 609.9231 C 359.2393 610.7542 360.9236 611.6113 362.4688 612.7043 C 364.3147 614.01 365.6556 615.1921 366.9688 616.4231 C 368.282 617.6556 369.5707 618.9262 371.3125 620.3918 C 373.7441 622.439 376.2868 624.338 378.7812 626.2668 C 381.2761 628.1964 383.7399 630.1653 386 632.4231 C 389.6738 636.0917 393.051 640.0394 396.4375 643.9856 C 399.824 647.9312 403.2125 651.891 406.875 655.5481 C 409.6791 658.3483 413.0285 660.4277 416.375 662.4856 C 419.7213 664.5442 423.068 666.5586 425.875 669.2356 C 428.0373 671.2966 429.6186 673.9235 431.1875 676.5481 C 432.7564 679.1728 434.307 681.7958 436.4062 683.8918 C 439.1245 686.6062 442.7775 688.2115 446.625 689.3918 C 450.4724 690.5718 454.5142 691.3497 458.0312 692.3606 C 465.8143 694.5974 473.7129 695.8483 481.6562 696.8293 C 489.5996 697.8103 497.5842 698.5032 505.5938 699.6418 C 510.6382 700.3589 515.6082 701.576 520.5938 702.7043 C 525.5793 703.8327 530.592 704.8787 535.6875 705.2668 C 539.3433 705.5456 543.2878 705.2931 547.2188 704.7668 C 551.1495 704.241 555.0706 703.433 558.625 702.6106 C 560.5579 702.1634 562.4187 701.5303 564.3125 700.9231 C 566.2064 700.3159 568.1371 699.7505 570.0938 699.4231 C 573.6684 698.8249 577.6278 698.6398 581.4688 698.0168 C 585.3096 697.3944 589.0093 696.3324 592.0625 693.9543 C 593.5661 692.7831 594.721 691.1771 595.9062 689.6418 C 597.0916 688.1063 598.3245 686.6364 599.9688 685.6731 C 601.6806 684.6703 603.5839 684.0979 605.5 683.5168 C 607.4161 682.9354 609.3506 682.3318 611.0625 681.3293 C 612.7136 680.362 614.0655 678.9795 615.4375 677.6106 C 616.8097 676.242 618.1843 674.9133 619.875 674.0168 C 620.6676 673.5967 621.7315 673.6683 622.7188 673.6731 C 623.706 673.6779 624.6355 673.5914 625.1562 672.8606 C 625.6867 672.1168 625.4175 671.2215 625.0938 670.2668 C 624.7698 669.3131 624.3648 668.3144 624.5625 667.4231 C 624.7601 666.5311 625.1781 665.6986 625.6875 664.9231 C 626.1969 664.1471 626.7937 663.4093 627.375 662.7043 C 629.1224 660.5857 631.3107 658.5821 633.375 656.4543 C 635.4395 654.3258 637.3914 652.0824 638.6562 649.5481 C 639.8508 647.1549 640.4842 644.4412 641.1875 641.7356 C 641.891 639.03 642.6617 636.3442 644.0938 633.9543 C 646.5508 629.853 649.6584 626.0967 652.75 622.3293 C 655.8415 618.5617 658.9188 614.7606 661.375 610.6106 C 663.9896 606.1916 665.3937 601.3618 666.8438 596.5168 C 668.2937 591.6713 669.811 586.8268 672.6562 582.4231 C 674.3574 579.79 676.2772 576.9946 678.375 574.3293 C 680.473 571.6636 682.7268 569.1113 685.0312 566.9856 C 685.722 566.3479 686.5198 565.8474 687.3125 565.3293 C 688.105 564.812 688.9139 564.2908 689.5625 563.6106 C 690.9465 562.1586 692.0407 560.4336 693.1875 558.7668 C 694.3341 557.0995 695.5196 555.4873 697.0625 554.2043 C 698.4426 553.0574 700.0591 552.2972 701.75 551.6418 C 703.441 550.9873 705.2148 550.4263 706.8438 549.6731 C 709.5122 548.4397 711.8119 547.4258 714.1875 546.5168 C 716.5632 545.6086 719.0108 544.8308 721.875 544.0481 C 725.2446 543.1267 728.8561 541.4187 732.5312 539.9856 C 736.2062 538.5523 739.9239 537.3625 743.4688 537.4231 C 745.4225 537.4563 747.3262 537.9941 749.2188 538.5481 C 751.1111 539.1021 752.9929 539.6741 754.9375 539.8606 C 755.8732 539.9509 756.8541 539.7852 757.8125 539.6731 C 758.7707 539.561 759.723 539.507 760.5938 539.8606 C 764.283 541.3609 766.9551 544.7322 769 548.5481 C 771.0449 552.3646 772.4471 556.6475 773.5625 559.9856 C 775.5103 565.816 776.6065 571.9 777.625 578.0168 C 778.6431 584.1346 779.601 590.2924 781.3125 596.2668 C 782.7585 601.3153 784.6027 606.2419 786.3438 611.2043 C 788.085 616.1665 789.709 621.1548 790.7188 626.3293 C 791.3867 629.7529 792.0742 633.3114 792.5 636.8918 C 792.9259 640.4721 793.1012 644.084 792.8125 647.5793 C 792.565 650.5703 792.0537 653.4064 791.6562 656.2668 C 791.2588 659.1265 790.9676 661.9953 791.125 665.0481 C 791.3228 668.8831 792.1357 672.6513 792.9688 676.3918 C 793.8017 680.1321 794.6611 683.8511 794.9062 687.6106 C 795.1899 691.9626 794.9218 696.3881 794.6562 700.8293 C 794.3904 705.2704 794.1098 709.7197 794.3438 714.1106 C 794.5549 718.0727 795.0051 721.054 795.2812 724.0168 C 795.5575 726.9798 795.6757 729.9358 795.3125 733.8606 C 795.2061 735.0112 794.9018 736.1175 794.5938 737.2356 C 794.2862 738.354 793.9749 739.4666 793.8125 740.6106 C 793.2551 744.5323 793.1149 748.5214 793 752.4856 C 792.885 756.4498 792.7837 760.3886 792.3125 764.2981 C 792.2005 765.2259 791.9335 766.1181 791.6562 767.0168 C 791.3797 767.9156 791.0933 768.8364 791 769.7668 C 790.7516 772.2314 790.9198 774.6958 791.125 777.1731 C 791.3303 779.6504 791.5918 782.134 791.5938 784.6106 C 791.5961 787.9589 791.412 791.8498 791.0625 795.7043 C 790.7129 799.5595 790.1886 803.383 789.5312 806.6106 C 788.6842 810.7698 787.4951 814.8021 786.3438 818.8606 C 785.1923 822.9187 784.0788 826.9967 783.3438 831.2356 C 782.5453 835.8441 781.5335 840.5137 780.5938 845.2043 C 779.6544 849.8947 778.7812 854.5912 778.2812 859.2356 C 777.78 863.8869 777.4537 868.2981 776.875 872.6418 C 776.2967 876.9854 775.4904 881.2835 774 885.7668 C 772.639 889.8586 770.5075 893.5003 768.0938 896.9856 C 765.6797 900.471 762.9721 903.7979 760.4688 907.2043 C 758.7253 909.5771 757.2489 912.2071 755.6875 914.7668 C 754.1269 917.3266 752.4679 919.8022 750.3125 921.8606 C 746.8139 925.2013 739.9591 929.2414 732.7812 932.5168 C 725.6034 935.7923 718.1256 938.3284 713.3125 938.6418 C 711.3651 938.7688 709.408 938.4617 707.4688 938.1418 C 705.5295 937.8219 703.6074 937.4845 701.6562 937.5168 C 699.6531 937.55 697.6792 937.9568 695.7188 938.4231 C 693.7579 938.8895 691.8083 939.4018 689.8125 939.5793 C 685.6766 939.947 681.0115 940.0327 676.4062 939.6731 C 675.2542 939.5831 674.1373 939.3503 673 939.2043 L 685.0938 942.3918 C 681.2478 942.0223 677.5611 941.1762 673.875 940.2043 C 670.1889 939.2325 666.5026 938.1331 662.7188 937.3293 C 656.1624 935.9367 649.3345 934.8611 642.5938 933.4231 C 635.853 931.9851 629.2153 930.2149 623.0625 927.4231 C 621.399 926.6685 619.784 925.7817 618.1875 924.8606 L 660.9375 936.0481 C 658.795 935.0257 656.7812 933.8307 654.8125 932.5168 C 652.1285 930.7262 649.4475 928.923 646.375 927.7668 C 644.2911 926.9827 642.0827 926.6244 639.875 926.2356 C 637.6675 925.8465 635.4658 925.4261 633.4062 924.5793 C 630.36 923.3274 627.4496 921.6962 624.5312 920.1418 C 621.6129 918.5876 618.6759 917.1198 615.5312 916.1418 C 609.9085 914.3925 604.986 914.0579 600 914.0793 C 596.5249 914.0946 592.9005 914.1954 589.125 914.1731 C 585.6311 914.0099 582.1319 913.8035 578.6875 912.7668 C 575.759 911.8858 572.8934 910.5526 569.9688 909.5168 C 567.0439 908.4811 564.0467 907.7422 560.8125 908.0793 C 557.1076 908.4652 553.3769 909.8959 549.75 911.6418 C 546.1232 913.3877 542.6185 915.4421 539.4062 917.1106 C 536.9216 918.401 534.2897 919.445 531.7188 920.5793 C 529.1478 921.7138 526.6403 922.9402 524.375 924.6418 C 521.8701 926.5232 519.772 928.8692 517.7188 931.2043 C 515.6653 933.5392 513.6504 935.8813 511.2188 937.8293 C 509.7741 938.9865 508.1787 939.9553 506.5938 940.9231 C 505.009 941.8906 503.4237 942.8648 502 944.0481 C 499.6469 946.0036 497.5393 948.1262 495.375 950.2043 C 493.2103 952.2823 490.984 954.3064 488.4688 956.0793 C 485.8682 957.9119 483.1276 959.5104 480.4062 961.1418 C 477.6849 962.7732 474.9862 964.4309 472.5 966.4231 C 469.5695 968.7707 466.8612 971.8191 463.9375 974.5481 C 461.0138 977.277 457.8815 979.6998 454.0938 980.7356 C 453.2126 980.9768 452.292 981.0334 451.375 981.0793 C 450.458 981.1253 449.5582 981.155 448.6562 981.2981 C 445.9663 981.7246 443.2367 982.544 440.5 983.2981 C 437.7634 984.0522 434.9976 984.7206 432.2812 984.8606 Z M 424.0312 895.3918 C 427.0476 894.755 427.0474 894.7377 429.1875 893.3293 C 431.7891 890.5875 431.7859 890.614 432.4062 889.0168 C 432.9791 887.0315 432.9776 887.0041 433.0312 886.2668 C 433.0992 885.4941 433.0831 885.0646 433.0312 884.3606 C 432.9569 883.3556 432.5941 882.4737 432.25 881.5793 C 432.3258 881.7609 432.459 882.0197 432.5312 882.2356 C 432.6262 882.5213 432.6709 882.7251 432.7188 882.9231 C 432.7101 882.8775 432.7308 882.8645 432.7188 882.7981 C 432.5832 882.0473 432.3718 880.7143 432.1562 879.2356 C 431.6707 875.9006 431.3088 872.8936 431.25 871.6418 C 433.51 871.7147 435.4337 871.0328 437.25 869.9543 C 437.8573 869.5938 438.3589 869.0851 438.9062 868.6418 C 439.253 868.5438 439.5746 868.4811 439.9688 868.3606 C 440.1752 868.2976 441.3438 867.9235 441.6562 867.8293 C 442.2247 867.658 442.6728 867.5606 443.125 867.4543 C 446.6999 866.6145 449.2038 863.8829 450.2188 860.6106 C 450.7195 860.4846 451.1956 860.3797 451.7188 860.1731 C 452.7626 859.7606 453.654 859.2896 454.75 858.3293 C 458.7874 854.791 459.9644 848.017 454.9375 843.3918 C 453.3265 841.9098 452.2262 841.4542 450.6562 841.0481 C 450.2649 840.9469 449.9283 840.881 449.5938 840.8293 C 449.2774 840.7804 448.9714 840.7321 448.6562 840.7043 C 448.2786 840.6706 447.8518 840.6699 447.3125 840.6418 C 446.4485 840.5962 445.2986 840.5363 443.8125 840.4856 C 442.3951 840.4376 440.751 840.3926 438.5312 840.3293 C 430.2709 840.0953 429.737 840.0837 429.3125 840.0481 C 427.3939 839.8891 425.6607 840.4218 424.0625 841.2356 C 423.906 840.8059 423.7736 840.47 423.5625 839.8918 C 423.4028 839.0997 423.3696 838.5828 423.1875 837.7356 C 422.9475 836.6188 422.7099 835.4555 422.4375 834.2668 C 421.9312 832.0584 421.389 829.8662 420.8125 827.5481 C 420.5993 826.6912 420.2531 825.4 420.0625 824.6418 C 420.0578 824.5638 420.0698 824.4854 420.0625 824.3918 C 420.0145 823.7594 419.9188 823.1159 419.75 822.4231 C 419.1118 819.8039 417.5893 817.399 414.9062 815.7668 C 413.6311 814.9916 412.2384 814.4329 410.4062 814.2668 C 406.9834 813.9562 403.4923 815.3703 401.3125 818.3293 C 399.9107 820.2325 399.4297 822.0846 399.3438 823.9543 C 399.3048 824.7982 399.3528 825.5427 399.4688 826.2668 C 399.5849 826.9921 399.7563 827.6273 399.9688 828.3293 C 400.0633 828.6417 400.3513 829.5329 400.4688 829.8918 C 400.5905 830.6004 401.2132 834.0969 401.3125 834.6418 C 401.8341 837.4981 402.4533 839.7212 403.1875 841.9543 C 402.9194 842.1967 402.5953 842.3059 402.3438 842.5793 C 400.9032 844.1455 399.7882 845.8229 398.9688 847.6418 C 398.4201 848.8598 398.1926 849.6333 397.7188 851.2668 C 397.6949 851.349 397.7066 851.3257 397.6875 851.3918 C 397.5554 851.472 397.5021 851.5299 397.2812 851.6418 C 397.1446 851.7111 396.9717 851.788 396.8125 851.8606 C 396.3595 851.9864 391.9606 853.1846 391.6562 853.2668 C 391.5259 853.3021 388.13 854.2316 387.0625 854.5481 C 386.3294 854.765 385.7515 854.9645 385.25 855.1418 C 384.7701 855.312 384.3267 855.4697 383.8438 855.7043 C 383.1749 856.0293 382.5795 856.3885 381.8438 856.9856 C 380.8275 857.8221 380.8397 857.8372 379.2812 860.1418 C 378.4753 861.8815 378.4624 861.8658 378.125 864.5168 C 378.3504 867.5018 378.3515 867.5072 379.6562 870.1106 C 381.5882 873.1869 384.6001 874.7557 387.7188 875.0481 C 389.1255 875.1801 390.1376 875.0681 391.3438 874.8293 C 391.3985 874.8185 391.4647 874.7876 391.5625 874.7668 C 392.9059 874.6198 394.3415 874.5368 396.0312 874.4856 C 397.4262 874.4433 398.5866 874.4306 401.2188 874.4231 C 405.8041 874.4092 408.7824 874.292 411.4688 874.0481 C 411.6382 876.2629 411.8544 878.7501 412.3438 882.1106 C 412.5893 883.7964 412.8488 885.3181 413.0312 886.3293 C 413.2105 887.3211 413.3161 887.8048 413.5625 888.5481 C 413.7054 888.9745 413.6901 888.9584 414.0625 889.7981 C 414.3503 890.3732 414.3402 890.3821 414.9688 891.3293 C 415.9019 892.5942 415.9225 892.5944 418.8125 894.4856 C 421.0219 895.3485 421.0144 895.3498 424.0312 895.3918 Z M 682.2188 863.8918 C 683.1217 863.7992 683.9994 863.6236 684.875 863.3918 C 686.8459 863.4294 688.7194 863.1317 690.375 862.2668 C 691.8273 861.5085 693.0678 860.4957 694.125 859.3293 C 695.9421 857.3252 697.2973 854.746 697.8438 852.0168 C 698.7289 847.5949 697.4961 842.8987 693.4688 839.7668 C 691.6535 839.0188 691.0607 838.865 690.0938 838.5168 C 688.5481 837.6331 686.85 837.0098 685.0625 836.9543 C 682.9914 836.8898 681.1645 837.3853 679.4688 838.1731 C 678.0787 838.8191 676.7532 839.6904 675.625 840.7981 C 673.8647 842.5268 672.6016 844.734 672.2812 847.5168 C 670.3548 849.8761 669.3378 853.0576 670.5312 856.7356 C 671.801 859.4781 671.8171 859.4788 672.9062 860.6418 C 673.7742 861.454 673.7688 861.447 674.3438 861.8606 C 674.8256 862.198 675.2267 862.4267 675.6562 862.6418 C 676.8818 863.2547 678.1744 863.6717 679.4688 863.8606 C 680.3873 863.9946 681.3158 863.9842 682.2188 863.8918 Z M 636.9688 844.4856 C 638.0807 844.6138 639.2718 844.5499 640.5312 844.2981 C 646.199 843.1645 650.3121 838.9152 650.8125 833.2043 C 651.1165 829.7342 650.0732 826.5569 648.3125 823.8293 C 646.2046 820.5639 643.623 818.1576 639.25 817.6731 C 632.9165 816.9714 628.4151 821.649 627.8438 827.0168 C 627.6577 827.4041 627.4208 827.7675 627.2812 828.1731 C 626.6886 829.8947 626.5819 831.5837 626.75 833.2043 C 626.9852 835.4729 627.8198 837.7349 629.1562 839.6106 C 630.9642 842.1481 633.6331 844.1009 636.9688 844.4856 Z M 711.9688 816.3293 C 714.3566 816.4447 716.0237 815.8669 717.625 814.9543 C 718.2944 814.573 718.8635 814.1591 719.4062 813.7043 C 720.1672 813.067 720.8951 812.339 721.5312 811.5481 C 723.7436 808.7972 725.0939 805.9073 724.4375 801.7981 C 723.7853 797.7158 720.9098 794.5478 717.125 793.2981 C 714.9546 792.5812 712.9009 792.5596 710.7188 792.9231 C 705.2817 793.8293 701.6118 798.956 702.5 804.3918 C 702.4981 804.402 702.502 804.4129 702.5 804.4231 C 702.3567 805.2335 702.2864 806.1011 702.375 807.1106 C 702.8004 811.9689 706.7011 816.0753 711.9688 816.3293 Z M 661.25 798.6418 C 665.7776 798.9901 669.6887 797.2147 672.25 794.2981 C 675.4283 792.0903 677.3553 788.2966 676.6875 783.9856 C 676.2579 781.2119 675.037 779.1872 673.2188 777.1418 C 672.2381 776.0386 671.1174 775.19 669.9062 774.5168 C 669.3132 774.1407 668.6425 773.951 667.9688 773.7043 C 667.5304 773.5527 667.1075 773.3661 666.6562 773.2668 C 666.3298 773.197 666.0575 773.0234 665.7188 772.9856 C 665.7373 772.9877 665.4375 772.9231 665.4375 772.9231 C 664.814 772.8165 664.4669 772.7596 663.9688 772.7043 C 663.1042 772.6082 662.2583 772.5809 661.3438 772.6418 C 658.6806 772.8195 656.4939 773.3577 654.2812 774.9231 C 650.0559 777.9128 649.0361 782.9619 650.6875 787.2668 C 650.691 787.5761 650.567 787.8601 650.5938 788.1731 C 651.076 793.8119 655.4215 798.1934 661.25 798.6418 Z M 589.125 914.1731 C 589.6152 914.196 590.1038 914.2441 590.5938 914.2668 C 594.5739 914.4521 598.5347 914.6968 602.375 916.1418 C 606.0022 917.5067 609.3758 919.5084 612.75 921.5793 C 614.5489 922.6835 616.3643 923.8082 618.1875 924.8606 L 564.2188 910.7043 C 567.5539 911.1785 570.8484 911.9102 574.1562 912.5793 C 577.4644 913.2479 580.7636 913.8576 584.125 914.0793 C 585.8912 914.1959 587.4835 914.1636 589.125 914.1731 Z " fill="#7c1da3"/>
<path transform="matrix(1,0,0,-1,0,2037.048)" d="M 1683.993 1191.645 C 1687.465 1099.978 1682.356 1051.41 1696.181 973.2657 C 1699.649 953.6604 1722.914 943.1901 1733.359 926.2401 C 1742.526 911.3643 1745.352 892.8073 1745.902 875.3426 C 1746.33 861.7436 1743.658 847.0797 1736.212 835.6922 C 1726.347 820.6049 1697.574 818.842 1695.668 799.8648 C 1692.773 771.0449 1696.608 750.2829 1697.844 721.1206 C 1698.727 700.3011 1702.359 664.2018 1694.348 651.7947 C 1674.182 649.9533 1653.664 648.8144 1632.888 648.1633 C 1515.449 644.4829 1389.801 656.3926 1273.298 645.1456 C 1249.318 642.8306 1235.057 615.1246 1213.191 605.01 C 1199.904 598.8637 1184.567 596.58 1169.947 597.3377 C 1147.151 598.5192 1123.282 600.6774 1102.788 610.7319 C 1085.271 619.3261 1079.72 648.4446 1060.388 651.0888 C 1027.582 655.5761 993.9431 655.0234 960.8015 654.6721 C 908.1578 654.1142 855.8604 651.5761 803.264 651.7014 C 795.7814 613.8655 801.87 595.0563 789.4707 558.5351 C 779.0642 527.8836 761.0071 514.8582 747.785 515.9767 C 723.173 518.0587 698.1735 529.5911 680.3512 546.6922 C 653.9319 572.0425 645.8999 612.5645 620.0745 638.5195 C 610.0174 648.627 591.3983 644.0222 577.1427 644.3117 C 546.0412 644.9432 491.9463 645.5131 491.9463 645.5131 C 491.9463 645.5131 485.2721 643.6218 478.0172 651.0722 C 470.0981 659.2046 475.4849 670.2332 469.132 686.5421 C 463.2444 689.6699 448.0273 679.8148 440.6141 673.1111 C 407.3679 643.0468 378.5856 606.8644 340.6258 583.6825 C 325.0804 574.189 304.7223 570.6091 286.8359 574.0533 C 270.88 577.1257 250.9495 586.071 246.7304 601.7627 C 236.4864 639.8625 239.5139 681.4954 247.563 720.1185 C 259.1509 775.7219 278.5028 830.2748 304.8402 880.5974 C 323.6991 916.6311 348.6899 951.3823 381.3113 975.6707 C 391.6142 983.3418 405.2451 992.3909 418.2716 994.2447 C 431.5336 996.1319 444.2116 990.7803 456.9272 993.8348 C 457.5093 1025.022 467.8182 1057.574 458.6735 1087.395 C 452.9403 1106.092 426.5185 1111.134 415.9183 1127.568 C 407.0557 1141.308 402.6647 1158.359 402.3554 1174.707 C 401.96 1195.599 405.6088 1217.133 413.86 1236.331 C 424.7973 1261.779 452.8022 1279.159 458.8637 1306.186 C 469.9226 1355.496 445.7722 1450.434 458.4912 1459.676 C 471.2102 1468.918 530.3389 1464.123 564.5618 1466.315 C 648.3943 1471.684 733.9029 1475.563 817.4257 1478.746 C 994.4669 1485.493 1170.468 1484.07 1347.589 1488.011 C 1448.994 1490.267 1550.801 1492.892 1651.855 1484.162 C 1657.882 1483.642 1664.698 1484.97 1667.574 1478.754 C 1669.461 1474.676 1671.801 1419.772 1671.801 1419.772 M 1623.156 1108.024 C 1621.985 1192.101 1624.094 1276.287 1619.642 1360.254 C 1618.462 1382.523 1614.987 1396.928 1610.541 1418.78 C 1536.08 1420.84 1428.9 1417.549 1342.7 1416.63 C 1154.908 1414.629 972.2851 1421.793 784.5422 1417.053 C 724.2177 1415.53 664.2012 1408.651 604.1738 1401.962 C 577.2237 1398.958 550.2713 1395.993 523.288 1393.567 C 520.6866 1301.565 516.859 1212.531 514.2763 1123.775 C 513.9156 1111.38 516.8894 1091.627 523.7348 1081.287 C 531.6057 1069.399 547.3974 1063.031 556.772 1052.289 C 564.1894 1043.79 571.4124 1035.896 573.0829 1024.74 C 578.101 991.2249 559.3759 929.0648 572.2353 923.549 C 611.1769 933.9274 653.424 952.243 693.6734 954.279 C 716.6861 955.4431 741.8278 947.466 759.2358 932.3696 C 778.0975 916.0126 789.9341 890.9712 794.8911 866.5019 C 805.6237 813.5232 801.872 758.6177 805.3624 704.6756 C 969.8664 707.9791 1135.153 698.2178 1298.874 714.5861 C 1333.315 718.0294 1373.493 760.1721 1407.204 768.0167 C 1449.386 777.832 1477.5 761.2213 1520.526 766.163 C 1547.297 769.2379 1573.073 778.4913 1598.616 787.0775 C 1611.009 791.2436 1621.257 795.5665 1630.829 804.4733 C 1635.66 808.9689 1634.536 820.5275 1635.883 826.9879 M 332.3182 895.6655 C 335.9641 901.9591 320.7261 879.2273 315.5589 868.8694 C 304.1038 845.9073 293.7408 818.6961 285.0352 795.5688 C 272.3584 761.8921 269.7495 727.4214 260.4649 692.6927 C 254.5698 670.6419 256.2773 646.7804 259.7489 624.2206 C 261.3484 613.8266 266.3253 602.3235 275.232 596.732 C 285.6054 590.2198 299.541 589.6493 311.6238 591.6544 C 329.1941 594.5701 347.0902 604.4182 361.5263 614.8497 C 397.811 641.069 419.1482 686.7411 461.8428 700.2023 C 509.8545 715.34 569.6603 716.5897 612.5365 690.2098 C 658.0569 662.2031 669.7715 597.3839 703.5856 555.9945 C 712.935 544.5505 726.0204 539.9603 740.7083 538.3342 C 750.674 537.2308 758.6677 545.0669 764.1352 553.4716 C 774.19 568.9279 778.9594 582.3009 780.5336 600.6726 C 785.516 658.8229 787.4023 717.3306 786.0059 775.6773 C 785.105 813.3217 778.693 844.3948 770.9831 881.2523 C 768.6889 892.2198 744.3124 922.7 744.3124 922.7 C 744.3124 922.7 712.5771 939.4707 689.1329 937.7771 C 655.0845 935.3174 625.3365 912.8328 592.1142 904.9831 C 579.26 901.9459 564.4535 899.8884 552.4929 905.492 C 510.4959 925.1677 478.0399 963.4672 434.3105 978.9146 C 419.3981 984.1825 402.7232 971.8616 389.6007 963.0339 C 372.6182 951.6096 360.6495 934.094 346.1739 919.6241 M 480.1394 1264.692 C 479.8711 1213.436 473.7668 1161.878 479.3345 1110.924 C 480.2474 1102.57 493.4006 1098.087 500.1503 1096.276 C 504.4306 1096.112 502.535 1156.708 503.4046 1187.747 C 504.9615 1243.32 501.648 1298.687 502.9072 1354.267 C 503.2502 1369.406 500.4996 1388.941 504.4419 1403.561 C 505.9614 1409.197 516.1905 1413.01 521.9853 1413.707 C 622.2104 1425.753 723.022 1434.355 823.937 1436.876 C 970.9042 1440.547 1124.22 1441.979 1271.227 1443.325 C 1360.101 1444.139 1462.214 1441.91 1551.073 1443.7 C 1582.886 1444.341 1621.934 1445.096 1628.099 1437.47 C 1633.254 1431.094 1638.119 1372.251 1639.621 1338.242 C 1643.616 1247.821 1640.41 1157.204 1643.206 1066.738 C 1645.636 988.1494 1650.189 909.6294 1655.296 831.169 C 1655.593 826.6022 1654.735 820.7879 1656.101 816.4199 C 1661.901 818.8743 1676.756 819.1302 1676.793 825.4282 C 1677.657 972.2269 1675.081 936.5083 1668.023 1083.14 C 1664.903 1147.973 1648.899 1444.754 1646.265 1459.669 C 1642.256 1459.702 1634.237 1459.773 1634.237 1459.773 C 1634.237 1459.773 1214.158 1468.098 1004.143 1464.933 C 828.8487 1462.291 658.9181 1449.356 483.8948 1439.258 C 480.2913 1439.05 473.7493 1436.816 471.2755 1434.188 M 1493.29 685.3652 C 1436.817 688.8952 1380.244 692.8522 1323.669 691.9214 C 1305.898 691.629 1301.139 680.8832 1290.733 667.3379 C 1336.673 659.3175 1372.734 668.5139 1421.883 669.1296 C 1482.187 669.885 1580.921 665.0781 1637.306 664.7171 C 1661.39 664.5629 1677.748 665.2199 1680.084 667.4681 C 1683.413 670.6735 1679.384 733.2594 1678.19 796.3881 C 1671.575 796.0878 1655.817 794.9832 1655.182 788.3915 C 1652.663 762.284 1656.665 737.2958 1654.403 711.1649 C 1653.996 706.4618 1652.755 701.6278 1650.253 697.6245 C 1647.891 693.8444 1637.035 692.0514 1633.925 691.9308 C 1607.893 690.9212 1581.833 690.8687 1555.787 690.3376 M 1507.984 704.3504 C 1525.353 706.1773 1542.625 709.7965 1560.09 709.831 C 1577.313 709.865 1595.252 709.5806 1612.425 708.2638 C 1624.081 707.37 1632.998 708.3644 1633.579 722.4707 C 1634.422 742.9148 1635.015 759.204 1635.424 779.6613 C 1600.265 765.1103 1567.27 748.3501 1526.149 743.9732 C 1497.632 740.938 1468.962 748.5829 1440.306 749.7004 C 1404.722 751.088 1376.355 731.4924 1347.423 714.0225 C 1362.449 709.001 1377.562 712.1717 1393.312 710.9461 C 1423.774 708.5757 1454.216 705.9599 1484.668 703.4669 M 1055.743 688.3431 C 969.3284 686.8488 889.0365 693.07 802.8278 685.1626 C 801.8356 672.8872 798.827 664.006 814.8614 664.408 C 883.7862 666.1359 952.6262 670.8199 1021.564 671.9457 C 1073.998 672.802 1126.465 672.0654 1178.879 670.3529 C 1202.5 669.5811 1232.795 670.3557 1256.429 670.5504 C 1270.474 670.6661 1270.531 682.8581 1275.403 689.9496 C 1269.154 693.5842 1256.409 693.6744 1256.409 693.6744 C 1256.409 693.6744 1242.128 693.8636 1234.909 693.4748 C 1204.949 691.8615 1175.944 693.9 1146.079 691.0219 M 461.5887 1199.863 C 461.1214 1219.042 461.6946 1237.953 461.4205 1257.151 C 461.4088 1257.97 461.4086 1258.929 460.8687 1259.545 C 455.7905 1265.336 445.1252 1248.053 442.0026 1244.816 C 429.5992 1231.955 418.6245 1185.529 421.5224 1167.564 C 425.3646 1143.746 430.7391 1137.255 449.4294 1129.184 C 453.7199 1127.331 460.7647 1119.553 461.0519 1128.665 C 461.5341 1143.968 460.9298 1159.288 461.171 1174.597 C 461.2597 1180.227 461.703 1185.882 461.1913 1191.49 M 518.9697 1004.325 C 519.0078 987.562 517.3024 975.3912 517.6869 958.839 C 517.7818 954.7527 519.1792 947.5138 520.6323 943.8614 C 522.0581 940.2774 527.8938 936.41 528.6273 935.8571 C 531.6343 933.5906 543.5545 925.1021 546.4531 933.6118 C 548.8098 940.5306 552.0232 947.3056 552.9439 954.5566 C 555.2006 972.3277 557.7072 1000.215 556.3905 1012.201 C 555.0738 1024.187 551.815 1030.357 543.2795 1038.486 C 534.744 1046.615 520.2499 1054.848 520.2499 1054.848 M 1104.874 638.4102 C 1130.08 623.9891 1161.425 616.9448 1190.248 622.9522 C 1200.845 625.1608 1209.461 630.2367 1218.775 635.849 C 1219.638 636.3692 1230.87 643.6299 1225.338 646.8267 C 1219.044 650.4644 1210.842 647.9538 1203.59 648.4753 C 1171.486 650.784 1143.075 652.9227 1110.337 652.3502 C 1104.468 652.2475 1090.483 652.0009 1093.558 646.9998 M 498.512 1004.345 C 499.2374 1023.147 500.1402 1041.406 500.9735 1063.351 C 501.314 1072.319 487.0161 1072.378 480.1799 1078.191 C 478.595 1046.555 472.7428 1014.845 475.4252 983.2825 C 476.0634 975.7736 484.8797 966.2134 496.0788 965.3905 C 498.5087 978.6353 497.882 985.4213 498.2307 986.0819 M 1709.637 917.2755 C 1708.819 918.1703 1693.274 938.8419 1692.767 927.1483 C 1692.457 920.0012 1692.875 912.8381 1693.182 905.6909 C 1693.317 902.5337 1693.939 899.4109 1694.093 896.2546 C 1694.929 879.1467 1693.645 861.3519 1697.478 844.5534 C 1699.94 833.7622 1712.818 846.9858 1714.799 850.7351 C 1722.357 865.0428 1720.088 896.647 1714.344 909.9691 M 517.3463 681.7952 C 510.724 682.3043 499.5353 683.0737 493.0584 681.6026 C 483.7584 679.4902 490.5246 660.0916 497.0783 659.6999 C 530.1835 657.7212 568.3346 659.0631 601.4984 659.2488 C 610.094 659.297 610.6048 675.5384 601.8753 676.2183 C 580.0079 677.9213 566.7514 678.1968 544.8754 679.7857 C 537.6106 680.3133 524.6088 681.237 517.3463 681.7952 Z " fill="#ffffff"/>
<path transform="matrix(1,0,0,-1,0,2037.048)" d="M 1403.428 1091.524 C 1404.803 1070.229 1408.177 1048.969 1407.552 1027.639 C 1407.446 1023.991 1399.347 1015.733 1394.84 1015.469 C 1380.568 1014.631 1366.717 1013.926 1352.434 1013.276 C 1327.006 1012.119 1301.271 1010.393 1275.819 1010.053 C 1252.371 1009.74 1229.025 1013.47 1205.582 1014.024 C 1150.894 1015.318 1096.18 1016.266 1041.481 1015.598 C 1015.235 1015.278 989.1155 1011.313 962.8692 1011.061 C 927.4865 1010.72 892.136 1013.648 856.7521 1013.82 C 817.1286 1014.012 777.514 1011.777 737.8918 1012.153 C 734.4693 1012.186 730.4612 1012.624 728.0382 1015.041 C 725.3681 1017.705 724.5125 1021.954 724.2944 1025.719 C 722.9878 1048.281 721.9177 1070.969 723.4936 1093.514 C 724.1804 1103.34 733.973 1107.436 742.0438 1107.663 C 773.9096 1108.56 805.8076 1106.325 837.6772 1107.073 C 924.7517 1109.116 1011.724 1115.255 1098.819 1116.032 C 1160.497 1116.583 1222.126 1112.256 1283.795 1111.055 C 1306.879 1110.605 1329.984 1110.302 1353.059 1111.079 C 1366.487 1111.532 1379.784 1115.471 1393.199 1114.74 C 1397.169 1114.524 1399.91 1110.477 1403.266 1108.345 M 1003.005 1031.022 C 1072.322 1033.308 1141.753 1034.38 1211.067 1032.015 C 1232.686 1031.278 1254.162 1027.706 1275.789 1027.292 C 1290.595 1027.008 1305.328 1029.805 1320.136 1029.925 C 1342.07 1030.103 1363.606 1030.101 1385.515 1031.153 C 1388.082 1031.276 1389.63 1032.242 1389.855 1034.801 C 1391.292 1051.186 1391.469 1066.262 1390.7 1082.692 C 1390.624 1084.333 1389.785 1095.582 1384.864 1096.186 C 1348.459 1100.655 1311.513 1094.956 1274.835 1095.054 C 1223.298 1095.192 1171.803 1098.621 1120.266 1098.627 C 1028.438 1098.637 937.497 1093.091 845.6654 1091.069 C 812.7613 1090.344 779.8087 1093.103 746.9306 1091.608 C 744.1223 1091.48 740.7054 1089.075 740.3922 1086.282 C 738.6698 1070.92 739.5645 1055.292 741.1345 1039.914 C 741.4655 1036.672 742.737 1031.575 745.9923 1031.431 C 806.0933 1028.771 866.3155 1032.372 926.4717 1031.711 C 951.9824 1031.43 977.5068 1030.181 1003.005 1031.022 Z " fill="#ffffff"/>
<path transform="matrix(1,0,0,-1,0,2037.048)" d="M 1244.815 1221.786 C 1238.791 1216.374 1237.998 1207.081 1234.114 1199.975 C 1232.163 1196.406 1224.088 1191.694 1220.709 1190.758 C 1206.425 1186.802 1205.905 1210.212 1198.125 1210.122 C 1195.833 1190.466 1197.991 1171.112 1196.116 1150.914 C 1195.231 1141.388 1181.356 1143.491 1179.402 1151.274 C 1176.891 1161.269 1180.156 1171.882 1181.129 1182.141 C 1182.859 1200.364 1183.644 1218.594 1184.584 1236.863 C 1185 1244.935 1180.957 1257.342 1188.033 1263.476 C 1195.866 1270.265 1198.689 1254.471 1201.876 1246.765 C 1204.099 1241.389 1216.821 1215.176 1218.441 1214.725 C 1223.918 1213.202 1227.498 1228.467 1230.093 1236.523 C 1232.584 1244.257 1234.181 1264.344 1247.232 1264.467 C 1259.492 1264.583 1257.932 1250.238 1258.822 1241.617 C 1261.646 1214.286 1266.917 1187.053 1269.829 1159.577 C 1270.578 1152.514 1269.958 1145.208 1262.054 1143.519 C 1252.319 1141.439 1252.453 1161.399 1251.215 1174.073 C 1250.099 1185.503 1249.855 1197.007 1248.735 1208.437 C 1248.283 1213.053 1248.006 1218.42 1244.815 1221.786 Z " fill="#ffffff"/>
<path transform="matrix(1,0,0,-1,0,2037.048)" d="M 1500.195 893.3467 C 1506.149 890.4699 1512.264 887.9052 1518.057 884.7163 C 1526.548 880.0419 1511.923 869.8928 1508.259 868.938 C 1499.713 866.711 1494.204 870.1034 1487.766 864.5415 C 1477.165 855.383 1488.024 830.4603 1473.199 822.2292 C 1462.762 816.4341 1453.561 858.0534 1443.298 860.0614 C 1430.953 862.4767 1407.299 843.2252 1399.045 849.3705 C 1385.453 859.489 1414.787 877.3488 1418.404 890.5676 C 1419.699 895.3031 1414.184 899.4338 1412.124 903.8901 C 1408.773 911.1382 1405.689 918.5255 1403.065 926.0673 C 1402.64 927.2893 1402.563 928.753 1403.057 929.949 C 1407.293 940.2078 1433.792 915.202 1440.468 917.0327 C 1451.104 919.9492 1474.902 955.9935 1486.019 951.3606 C 1492.544 948.6411 1485.948 937.1783 1485.328 934.5613 C 1481.033 916.4413 1476.807 905.769 1492.741 895.8733 M 1467.167 845.5223 C 1472.764 853.5315 1467.177 864.693 1472.57 871.9159 C 1477.874 879.0199 1489.739 876.3441 1498.334 878.5181 C 1499.077 878.7062 1499.595 879.6411 1499.65 880.4064 C 1500.037 885.8397 1473.398 888.8262 1470.376 894.0201 C 1468.529 897.194 1467.126 902.1059 1467.046 905.934 C 1467.03 906.7076 1480.766 938.0725 1472.784 931.3587 C 1468.077 927.4 1460.846 916.3042 1456.514 911.939 C 1453.377 908.7789 1448.832 905.5239 1443.678 905.7769 C 1435.531 906.1768 1429.703 915.8315 1421.784 914.0836 C 1420.606 902.9296 1433.068 896.2099 1432.849 885.1798 C 1432.703 877.8789 1416.059 871.3092 1424.217 866.4338 C 1429.345 863.3686 1435.861 869.2842 1441.806 869.884 C 1453.483 871.0623 1460.119 853.557 1467.167 845.5223 Z " fill="#ffffff"/>
<path transform="matrix(1,0,0,-1,0,2037.048)" d="M 1363.003 1190.094 C 1361.402 1181.805 1359.968 1173.4 1357.057 1165.475 C 1350.841 1148.557 1321.772 1131.498 1308.117 1150.669 C 1296.151 1167.471 1294.492 1194.198 1292.392 1212.968 C 1290.989 1225.508 1289.216 1238.08 1289.327 1250.698 C 1289.34 1252.16 1294.258 1270.145 1296.01 1271.377 C 1309.28 1280.704 1308.718 1252.659 1308.891 1249.782 C 1309.631 1237.509 1309.343 1225.187 1310.134 1212.917 C 1310.562 1206.273 1311.365 1199.642 1312.546 1193.09 C 1313.921 1185.465 1319.926 1156.562 1330.439 1158.416 C 1333.384 1158.935 1339.333 1162.654 1340.265 1166.201 C 1343.095 1176.971 1345.371 1187.923 1346.75 1198.974 C 1349.79 1223.352 1345.095 1248.111 1345.753 1272.67 C 1345.902 1278.223 1354.337 1283.474 1358.953 1284.387 C 1367.419 1286.061 1364.331 1269.181 1365.048 1254.516 C 1366.155 1231.904 1367.338 1212.533 1363.003 1190.094 Z " fill="#ffffff"/>
<path transform="matrix(1,0,0,-1,0,2037.048)" d="M 780.8421 1195.638 C 780.0322 1195.764 768.551 1197.07 767.8799 1192.09 C 766.9711 1185.346 766.4639 1178.539 766.3107 1171.736 C 766.0412 1159.769 766.941 1147.792 766.6127 1135.826 C 766.5102 1132.089 760.6195 1129.816 757.8162 1129.435 C 750.5686 1128.45 749.2554 1136.369 749.0134 1141.759 C 748.6403 1150.071 748.7852 1158.404 749.0453 1166.721 C 749.92 1194.678 750.1885 1222.651 751.0474 1250.609 C 751.108 1252.583 751.0333 1262.672 754.6503 1265.881 C 761.7852 1272.212 764.471 1262.233 764.8865 1257.025 C 765.2834 1252.052 765.0352 1247.039 765.4836 1242.07 C 766.5547 1230.2 760.0719 1205.544 777.8651 1206.277 C 783.624 1206.515 800.3309 1205.17 800.8166 1215.777 C 801.4626 1229.886 800.8772 1244.031 801.4066 1258.145 C 801.5291 1261.411 801.988 1279.17 810.829 1276.415 C 814.7776 1275.184 814.6993 1267.308 814.8694 1265.158 C 815.6708 1255.037 816.3017 1244.899 816.7042 1234.755 C 817.2387 1221.282 817.5602 1207.8 817.68 1194.318 C 817.787 1182.275 817.3351 1171.519 817.0268 1159.091 C 816.9328 1155.302 820.0923 1144.483 814.2414 1141.278 C 802.1193 1134.639 798.086 1145.72 798.1835 1156.171 C 798.286 1167.152 799.6865 1178.094 799.8266 1189.074 C 799.8454 1190.547 799.5742 1192.183 798.6578 1193.337 C 794.6956 1198.325 786.4719 1194.764 780.8421 1195.638 Z " fill="#ffffff"/>
<path transform="matrix(1,0,0,-1,0,2037.048)" d="M 682.7872 1282.041 C 679.6776 1282.609 657.7801 1287.415 652.0438 1276.673 C 647.7493 1268.632 642.3202 1240.715 631.0006 1240.456 C 623.405 1240.283 622.8442 1263.856 620.5537 1272.505 C 616.0539 1289.496 583.5655 1277.604 585.9809 1289.275 C 588.4895 1301.397 610.206 1302.386 611.2306 1315.349 C 612.1854 1327.43 608.8426 1339.474 608.1104 1351.57 C 607.8006 1356.689 611.4014 1361.406 616.5825 1362.397 C 627.6456 1364.512 634.2839 1348.464 643.1497 1341.517 C 646.0175 1339.269 649.4502 1337.756 652.8923 1336.562 C 660.6877 1333.858 668.0756 1343.027 675.6581 1346.281 C 712.3439 1362.023 682.6701 1327.18 682.4955 1316.136 C 682.3081 1304.286 712.0064 1295.974 706.5483 1288.342 C 704.0368 1284.83 698.5397 1282.707 694.265 1282.1 C 688.5926 1281.294 685.9683 1281.76 685.1604 1281.598 M 648.6076 1289.027 C 660.7142 1298.306 667.9483 1292.12 681.5337 1296.721 C 680.9257 1304.12 670.8209 1303.576 669.7206 1310.445 C 668.6551 1317.096 678.2381 1326.562 675.7979 1331.988 C 674.0577 1335.857 651.9893 1323.337 646.8772 1323.379 C 639.7358 1323.438 630.7661 1338.427 626.1465 1336.84 C 620.1159 1334.768 625.5216 1320.637 624.8235 1315.57 C 623.6365 1306.954 611.6203 1305.204 609.9332 1297.453 C 608.5849 1291.259 623.9002 1295.754 626.9418 1293.315 C 633.1889 1288.306 633.2477 1266.353 633.2477 1266.353 C 633.2477 1266.353 645.754 1284.57 648.6076 1289.027 Z " fill="#ffffff"/>
<path transform="matrix(1,0,0,-1,0,2037.048)" d="M 846.5196 1143.803 C 835.5287 1139.161 838.596 1158.126 839.3075 1162.718 C 843.4524 1189.469 844.9426 1224.481 854.3185 1249.6 C 857.7052 1258.673 861.794 1272.754 874.5353 1269.696 C 882.9989 1267.665 891.9203 1223.334 894.5288 1213.519 C 897.4351 1202.583 900.1214 1191.58 902.3535 1180.487 C 904.8424 1168.118 907.5444 1155.734 908.6843 1143.168 C 908.8313 1141.548 907.3729 1140.051 906.1154 1139.019 C 883.9838 1120.868 885.0656 1177.725 881.5299 1187.594 C 880.0463 1191.735 876.6688 1191.992 872.9438 1192.038 C 859.7645 1192.201 861.2813 1189.407 857.8132 1178.038 C 856.3081 1173.103 854.0227 1168.428 852.5512 1163.483 C 850.9871 1158.228 849.9975 1152.819 848.7206 1147.486 M 862.5624 1211.053 C 862.5019 1210.726 862.4506 1210.397 862.4083 1210.067 C 862.3608 1209.736 862.3405 1209.404 862.3471 1209.071 C 862.348 1208.856 862.3527 1208.689 862.3614 1208.572 C 862.3831 1208.238 862.4403 1207.911 862.5332 1207.591 C 862.6676 1207.048 862.825 1206.739 863.1541 1206.239 C 863.2811 1206.051 863.3798 1205.917 863.45 1205.837 C 863.6813 1205.595 863.9317 1205.377 864.2012 1205.183 C 864.4666 1204.977 864.7569 1204.816 865.0723 1204.7 C 865.2476 1204.627 865.4028 1204.568 865.5379 1204.523 C 865.8543 1204.415 866.1778 1204.338 866.5083 1204.292 C 866.8362 1204.233 867.1669 1204.196 867.5002 1204.18 C 867.6241 1204.174 867.7905 1204.169 867.9993 1204.166 C 868.3325 1204.156 868.6652 1204.167 868.9973 1204.199 C 869.1547 1204.213 869.3201 1204.23 869.4937 1204.252 C 869.7256 1204.281 869.8905 1204.304 869.9882 1204.322 C 870.3146 1204.39 870.6367 1204.474 870.9545 1204.572 C 871.2743 1204.67 871.5805 1204.799 871.8732 1204.959 C 872.1736 1205.105 872.4535 1205.284 872.7126 1205.496 C 872.9694 1205.707 873.211 1205.935 873.4376 1206.18 C 873.5034 1206.257 873.6015 1206.392 873.732 1206.584 C 873.9216 1206.857 874.0875 1207.145 874.2297 1207.447 C 874.2691 1207.535 874.3282 1207.691 874.4069 1207.914 C 874.5237 1208.226 874.613 1208.546 874.6746 1208.875 C 874.7335 1209.202 874.7803 1209.532 874.8151 1209.863 C 874.824 1209.968 874.8313 1210.135 874.8374 1210.362 C 874.8463 1210.695 874.843 1211.028 874.8271 1211.361 C 874.8212 1211.464 874.8068 1211.63 874.7838 1211.858 C 874.7535 1212.19 874.7088 1212.52 874.6496 1212.848 C 874.6279 1212.971 874.5962 1213.135 874.5546 1213.338 C 874.4907 1213.665 874.4142 1213.989 874.3252 1214.31 C 874.2408 1214.632 874.151 1214.953 874.0559 1215.272 C 874.032 1215.353 873.9832 1215.512 873.9095 1215.75 C 873.8114 1216.068 873.7107 1216.386 873.6073 1216.702 C 873.5044 1217.019 873.4008 1217.335 873.2964 1217.652 C 873.0871 1218.284 872.8774 1218.916 872.6663 1219.548 C 872.4061 1220.327 872.3054 1220.627 872.1902 1220.969 C 872.0839 1221.284 871.9766 1221.6 871.8682 1221.915 C 871.759 1222.229 871.6465 1222.543 871.5306 1222.855 C 871.418 1223.169 871.2926 1223.477 871.1542 1223.78 C 871.079 1223.945 871.0065 1224.095 870.937 1224.229 C 870.7953 1224.533 870.6168 1224.813 870.4016 1225.07 C 870.1875 1225.328 869.9402 1225.546 869.6596 1225.725 C 869.4799 1225.833 869.3295 1225.905 869.2086 1225.939 C 868.8755 1226.016 868.5481 1226.012 868.2261 1225.927 C 868.0638 1225.885 867.9102 1225.825 867.7653 1225.749 C 867.4637 1225.59 867.2167 1225.371 867.024 1225.091 C 866.9304 1224.971 866.8365 1224.835 866.7422 1224.681 C 866.5675 1224.397 866.4232 1224.098 866.3094 1223.783 C 866.2665 1223.672 866.2109 1223.516 866.1425 1223.313 C 866.0366 1222.997 865.9398 1222.678 865.8519 1222.357 C 865.8295 1222.277 865.7856 1222.116 865.7207 1221.875 C 865.6342 1221.553 865.5491 1221.231 865.4651 1220.909 C 865.2203 1219.976 865.1457 1219.693 865.0823 1219.46 C 864.9945 1219.139 864.9045 1218.818 864.8121 1218.498 C 864.7184 1218.179 864.6198 1217.861 864.5161 1217.544 C 864.4144 1217.227 864.3073 1216.912 864.1947 1216.598 C 864.0842 1216.284 863.9727 1215.97 863.86 1215.657 C 863.7495 1215.343 863.6414 1215.028 863.5358 1214.712 C 863.4302 1214.396 863.3309 1214.078 863.238 1213.758 C 863.1419 1213.439 863.0525 1213.119 862.9698 1212.796 C 862.8864 1212.473 862.806 1212.15 862.5624 1211.053 Z " fill="#ffffff"/>
<path transform="matrix(1,0,0,-1,0,2037.048)" d="M 1029.402 1249.66 C 1032.225 1254.404 1036.914 1264.354 1041.887 1269.298 C 1044.221 1271.62 1054.677 1276.084 1055.413 1269.563 C 1056.097 1263.501 1051.501 1257.94 1048.587 1252.58 C 1044.378 1244.838 1039.835 1237.273 1035.068 1229.862 C 1031.601 1224.474 1022.13 1219.43 1024.806 1213.609 C 1030.292 1201.678 1037.163 1190.432 1043.58 1178.976 C 1053.193 1161.815 1069.653 1143.933 1056.397 1141.337 C 1052.722 1140.617 1045.736 1138.758 1042.852 1143.131 C 1037.173 1151.74 1031.796 1160.549 1026.554 1169.432 C 1026.17 1170.084 1023.711 1177.506 1020.975 1178.666 C 1019.577 1179.258 1018.268 1177.747 1018.257 1176.55 C 1018.202 1170.736 1018.907 1164.936 1018.944 1159.122 C 1018.951 1157.96 1018.732 1156.791 1018.388 1155.681 C 1016.916 1150.938 1007.797 1146.749 1003.857 1151.047 C 1001.469 1153.652 999.6226 1161.528 999.54 1164.161 C 998.9353 1183.434 998.8402 1202.731 999.3076 1222.007 C 999.6354 1235.525 1000.147 1259.2 1008.734 1271.003 C 1015.479 1280.274 1017.168 1260.784 1016.98 1247.429 C 1016.757 1231.632 1015.536 1226.355 1029.402 1249.66 Z " fill="#ffffff"/>
<path transform="matrix(1,0,0,-1,0,2037.048)" d="M 945.3196 1209.302 C 943.6175 1197.436 941.5441 1170.9 948.4127 1158.317 C 952.325 1151.149 980.5606 1183.354 978.6663 1165.254 C 976.7943 1147.368 945.9018 1132.543 932.3201 1145.631 C 930.1272 1147.745 928.7373 1153.525 928.4161 1155.771 C 927.3561 1163.184 926.3921 1170.635 926.106 1178.118 C 925.0901 1204.68 925.876 1245.869 940.705 1267.881 C 951.8608 1284.44 977.5039 1271.859 973.7083 1252.998 C 970.512 1237.115 958.7012 1262.882 955.6136 1255.793 C 948.8889 1240.354 947.6252 1225.376 945.3196 1209.302 Z " fill="#ffffff"/>
<path transform="matrix(1,0,0,-1,0,2037.048)" d="M 1104.031 1229.806 C 1105.87 1242.945 1115.57 1289.731 1139.569 1272.753 C 1144.9 1268.983 1151.657 1251.628 1145.182 1246.537 C 1136.513 1239.721 1134.982 1261.426 1130.17 1258.967 C 1125.973 1256.822 1125.461 1245.844 1125.308 1244.783 C 1122.553 1225.77 1120.068 1206.896 1121.634 1187.645 C 1122.107 1181.842 1123.564 1176.144 1125.07 1170.521 C 1125.997 1167.059 1128.522 1161.515 1132.754 1160.858 C 1134.291 1160.619 1158.343 1178.781 1155.774 1165.439 C 1152.351 1147.658 1125.86 1129.092 1114.189 1150.718 C 1100.723 1175.671 1100.235 1202.674 1104.031 1229.806 Z " fill="#ffffff"/>
<path transform="matrix(1,0,0,-1,0,2037.048)" d="M 379.4875 850.3074 C 368.9824 857.1697 365.343 879.3062 381.5186 880.6543 C 386.9591 881.1077 397.07 875.4198 402.0499 879.1981 C 408.2142 883.8751 408.0737 893.4532 411.0724 900.5863 C 414.1859 907.9925 426.8343 904.2087 430.817 903.2051 C 433.0744 902.6362 436.063 900.1643 438.2953 899.504 C 450.9602 895.7583 438.5668 882.9912 443.5194 875.3895 C 447.6891 868.9896 457.715 870.2898 463.6547 866.0214 C 472.665 859.5463 465.2945 836.1215 455.9106 832.0574 C 447.2241 828.2953 440.5597 838.2982 432.3921 834.7809 C 427.3429 832.6065 425.2912 819.6329 424.628 817.1006 C 422.5822 809.29 417.0687 808.6469 409.6322 807.401 C 404.9196 806.6115 398.2318 808.8409 394.4356 811.59 C 379.0726 822.7154 411.093 842.2948 385.2916 847.6794 M 405.573 842.1953 C 406.9521 831.7907 397.6077 823.1193 403.5456 820.1073 C 421.8043 810.8458 414.2815 836.527 426.9864 846.1633 C 433.8056 851.3356 459.8527 837.1111 456.4563 852.5946 C 454.0959 863.3551 435.941 861.5832 430.2519 871.0166 C 426.3846 877.4291 437.3677 885.4977 427.5879 889.3445 C 414.2896 894.5752 417.3237 878.5871 410.1955 871.776 C 402.937 864.8403 395.4082 870.0214 386.6262 870.8854 C 380.9243 871.4464 378.4493 864.067 382.8143 860.876 C 395.1552 851.8541 403.4729 858.0387 405.573 842.1953 Z " fill="#ffffff"/>
<path transform="matrix(1,0,0,-1,0,2037.048)" d="M 694.7177 852.6777 C 692.6967 860.1025 678.4752 865.1053 674.2947 857.1118 C 672.0266 852.7749 674.3935 849.9019 675.5569 845.4939 C 675.9771 843.9015 678.3148 842.3138 677.2982 840.0958 C 675.5169 836.2093 689.6188 832.4047 669.5893 839.1404 C 667.6948 839.7775 665.9314 845.223 665.6588 846.4622 C 659.8322 872.9407 684.104 873.453 701.9014 866.3557 C 704.0279 865.5077 705.9069 863.7384 706.9669 861.724 C 714.9312 846.588 682.1714 824.7405 675.5406 840.1529 C 669.012 846.6252 691.4514 838.9904 694.7177 852.6777 Z " fill="#ffffff"/>
<path transform="matrix(1,0,0,-1,0,2037.048)" d="M 644.9747 782.1382 C 641.5701 797.6871 665.9124 816.609 673.9705 805.9098 C 676.9561 801.9455 679.6821 797.7728 682.1227 793.4515 C 692.4662 775.1382 657.3123 756.6657 646.8279 772.9465 M 654.9196 793.5205 C 645.7357 779.2774 661.684 767.4357 670.5333 779.7068 C 676.7925 788.3864 661.9914 804.4881 654.9196 793.5205 Z " fill="#ffffff"/>
<path transform="matrix(1,0,0,-1,0,2037.048)" d="M 636.7556 851.5438 C 644.5431 851.1055 658.0746 847.4015 660.8937 838.2372 C 664.6155 826.1379 648.3912 808.4977 635.7647 815.3738 C 631.3027 817.8036 630.4687 822.4282 636.3517 822.2376 C 641.8169 822.0605 650.3321 825.8102 648.4032 833.2253 C 645.2231 845.4499 632.8532 845.0403 629.0692 834.7371 C 628.3192 832.6949 626.5847 826.8398 633.2031 822.9322 C 644.3548 816.3481 640.3947 814.316 635.3003 815.5589 C 632.3519 816.2783 624.9438 819.7538 622.7924 821.9001 C 613.2859 831.3841 626.6973 852.1099 636.7556 851.5438 Z " fill="#ffffff"/>
<path transform="matrix(1,0,0,-1,0,2037.048)" d="M 698.259 811.3958 C 708.0215 828.1139 738.2521 823.1855 732.4106 803.4974 C 726.1741 782.4782 692.7971 782.9055 696.9657 807.7587 M 708.5264 795.2305 C 718.3594 789.7182 725.7888 806.5358 715.6471 812.4104 C 705.8915 818.0613 702.7859 798.4486 708.5264 795.2305 Z " fill="#ffffff"/>
<path transform="matrix(1,0,0,-1,0,2037.048)" d="M 510.4464 1181.279 L 510.9607 1181.279 C 511.0317 1181.279 511.0893 1181.221 511.0893 1181.15 C 511.0893 1181.079 511.0317 1181.022 510.9607 1181.022 L 510.4464 1181.022 C 510.3754 1181.022 510.3178 1181.079 510.3178 1181.15 C 510.3178 1181.221 510.3754 1181.279 510.4464 1181.279 Z " fill="#ffffff"/>
<path transform="matrix(1,0,0,-1,0,2037.048)" d="M 937.8008 906.0812 C 942.6283 907.1565 945.5732 908.7101 951.5167 910.0817 C 957.4603 911.4533 967.0711 912.3322 966.2614 907.91 C 964.7755 899.7947 965.2165 898.2207 953.5583 894.1212 C 948.755 892.4322 937.6315 892.5446 928.3856 891.3122 C 919.5756 890.1379 912.6297 887.4645 908.1749 891.8347 C 900.8901 898.9811 914.4744 912.4676 917.3856 915.7919 C 927.5977 927.453 945.3682 934.339 945.529 952.1981 C 945.7238 973.8233 913.5682 945.7168 911.2754 950.0545 C 903.6661 964.4499 929.9877 975.193 939.8925 974.0124 C 963.1057 971.2455 958.3988 948.4836 949.2642 934.7245 C 943.6595 926.2824 934.3246 916.2744 928.6531 907.877 C 926.0999 904.0968 936.676 905.8306 937.8008 906.0812 Z " fill="#ffffff"/>
<path transform="matrix(1,0,0,-1,0,2037.048)" d="M 1017.586 973.8978 C 1062.125 975.8095 1053.469 912.05 1027.847 891.8149 C 1022.675 887.7307 1014.464 888.5384 1008.892 888.9239 C 997.5529 889.7084 992.3134 896.1288 989.6686 908.2083 C 984.2628 932.8988 988.2768 957.5366 1009.575 970.9183 M 1032.079 940.2225 C 1020.729 981.9092 996.51 949.0906 999.0356 922.2654 C 999.421 918.1718 1000.989 908.5175 1004.807 905.3657 C 1008.625 902.214 1015.215 898.1727 1021.057 903.9036 C 1029.972 912.6482 1035.271 928.499 1032.079 940.2225 Z " fill="#ffffff"/>
<path transform="matrix(1,0,0,-1,0,2037.048)" d="M 1216.043 949.9323 C 1212.691 937.9934 1201.228 930.042 1193.753 920.1471 C 1174.993 895.3118 1228.633 922.1125 1231.401 907.0657 C 1232.248 902.4593 1224.755 896.8786 1220.783 896.3776 C 1214.177 895.5444 1207.476 895.6289 1200.874 894.7714 C 1194.524 893.9465 1167.674 886.3465 1167.639 900.4008 C 1167.597 917.5538 1208.243 945.3469 1201.484 960.8364 C 1195.722 974.0401 1169.228 938.372 1170.663 955.3864 C 1172.337 975.2454 1226.371 986.7052 1216.043 949.9323 Z " fill="#ffffff"/>
<path transform="matrix(1,0,0,-1,0,2037.048)" d="M 1075.383 895.4684 C 1073.164 908.318 1104.374 937.7826 1112.511 947.4108 C 1114.91 950.2495 1117.439 951.815 1115.855 956.1218 C 1107.043 980.0892 1085.136 927.9466 1082.586 950.0879 C 1079.963 972.8678 1123.213 984.9214 1130.367 961.7517 C 1131.081 959.4407 1132.083 958.1298 1130.568 952.6066 C 1128.649 945.6116 1125.424 943.2008 1119.252 934.3829 C 1113.079 925.565 1098.906 917.9772 1098.676 909.5304 C 1098.474 902.1392 1129.8 912.4761 1133.066 908.6641 C 1138.306 902.5484 1134.083 897.6678 1131.15 896.596 C 1119.115 892.1981 1103.303 891.0617 1090.381 890.4236 C 1077.458 889.7855 1076.32 890.0351 1075.383 895.4684 Z " fill="#ffffff"/>
</g>
</g>
</g>
</g>
</g>
</svg>